name rise34.3697peak60.0498fall86.3158.mot
datacolumns 19
datarows 15
range 19.53992800000000 19.56325700000000
endheader
time	ground_force1_vx	ground_force1_vy	ground_force1_vz	ground_force1_px	ground_force1_py	ground_force1_pz	ground_force2_vx	ground_force2_vy	ground_force2_vz	ground_force2_px	ground_force2_py	ground_force2_pz	ground_torque1_x	ground_torque1_y	ground_torque1_z	ground_torque2_x	ground_torque2_y	ground_torque2_z	
19.53992800000000	7.89034600000000	682.47921499999995	44.75878300000000	0.28325100000000	0.00000000000000	0.11635400000000	0.00000000000000	0.00000000000000	0.00000000000000	0.00000000000000	0.00000000000000	0.00000000000000	0.00000000000000	22.70754400000000	0.00000000000000	0.00000000000000	0.00000000000000	0.00000000000000	
19.54159300000000	7.46967500000000	683.06978000000004	44.79111300000000	0.28255400000000	0.00000000000000	0.11628500000000	0.00000000000000	0.00000000000000	0.00000000000000	0.00000000000000	0.00000000000000	0.00000000000000	0.00000000000000	22.78998500000000	0.00000000000000	0.00000000000000	0.00000000000000	0.00000000000000	
19.54325800000000	7.04019000000000	683.71184000000005	44.82731200000000	0.28186600000000	0.00000000000000	0.11621600000000	0.00000000000000	0.00000000000000	0.00000000000000	0.00000000000000	0.00000000000000	0.00000000000000	0.00000000000000	22.87879600000000	0.00000000000000	0.00000000000000	0.00000000000000	0.00000000000000	
19.54492900000000	6.60185300000000	684.40517999999997	44.86704800000000	0.28118400000000	0.00000000000000	0.11614600000000	0.00000000000000	0.00000000000000	0.00000000000000	0.00000000000000	0.00000000000000	0.00000000000000	0.00000000000000	22.97374100000000	0.00000000000000	0.00000000000000	0.00000000000000	0.00000000000000	
19.54659600000000	6.15465900000000	685.14963999999998	44.91001500000000	0.28050900000000	0.00000000000000	0.11607600000000	0.00000000000000	0.00000000000000	0.00000000000000	0.00000000000000	0.00000000000000	0.00000000000000	0.00000000000000	23.07459300000000	0.00000000000000	0.00000000000000	0.00000000000000	0.00000000000000	
19.54826400000000	5.69863900000000	685.94511299999999	44.95593400000000	0.27983900000000	0.00000000000000	0.11600500000000	0.00000000000000	0.00000000000000	0.00000000000000	0.00000000000000	0.00000000000000	0.00000000000000	0.00000000000000	23.18112600000000	0.00000000000000	0.00000000000000	0.00000000000000	0.00000000000000	
19.54993000000000	5.23386000000000	686.79154300000005	45.00455100000000	0.27917300000000	0.00000000000000	0.11593400000000	0.00000000000000	0.00000000000000	0.00000000000000	0.00000000000000	0.00000000000000	0.00000000000000	0.00000000000000	23.29311900000000	0.00000000000000	0.00000000000000	0.00000000000000	0.00000000000000	
19.55159200000000	4.76042100000000	687.68892400000004	45.05563700000000	0.27851200000000	0.00000000000000	0.11586200000000	0.00000000000000	0.00000000000000	0.00000000000000	0.00000000000000	0.00000000000000	0.00000000000000	0.00000000000000	23.41035800000000	0.00000000000000	0.00000000000000	0.00000000000000	0.00000000000000	
19.55325500000000	4.27845500000000	688.63729599999999	45.10899500000000	0.27785400000000	0.00000000000000	0.11579000000000	0.00000000000000	0.00000000000000	0.00000000000000	0.00000000000000	0.00000000000000	0.00000000000000	0.00000000000000	23.53263300000000	0.00000000000000	0.00000000000000	0.00000000000000	0.00000000000000	
19.55492300000000	3.78812700000000	689.63674400000002	45.16445200000000	0.27719800000000	0.00000000000000	0.11571800000000	0.00000000000000	0.00000000000000	0.00000000000000	0.00000000000000	0.00000000000000	0.00000000000000	0.00000000000000	23.65973900000000	0.00000000000000	0.00000000000000	0.00000000000000	0.00000000000000	
19.55659200000000	3.28963400000000	690.68739300000004	45.22186700000000	0.27654400000000	0.00000000000000	0.11564500000000	0.00000000000000	0.00000000000000	0.00000000000000	0.00000000000000	0.00000000000000	0.00000000000000	0.00000000000000	23.79147900000000	0.00000000000000	0.00000000000000	0.00000000000000	0.00000000000000	
19.55825600000000	2.78320200000000	691.78940299999999	45.28112500000000	0.27589100000000	0.00000000000000	0.11557200000000	0.00000000000000	0.00000000000000	0.00000000000000	0.00000000000000	0.00000000000000	0.00000000000000	0.00000000000000	23.92765900000000	0.00000000000000	0.00000000000000	0.00000000000000	0.00000000000000	
19.55992400000000	2.26908600000000	692.94296199999997	45.34214100000000	0.27523900000000	0.00000000000000	0.11549900000000	0.00000000000000	0.00000000000000	0.00000000000000	0.00000000000000	0.00000000000000	0.00000000000000	0.00000000000000	24.06809200000000	0.00000000000000	0.00000000000000	0.00000000000000	0.00000000000000	
19.56158900000000	1.74756600000000	694.14828799999998	45.40485800000000	0.27458600000000	0.00000000000000	0.11542600000000	0.00000000000000	0.00000000000000	0.00000000000000	0.00000000000000	0.00000000000000	0.00000000000000	0.00000000000000	24.21259900000000	0.00000000000000	0.00000000000000	0.00000000000000	0.00000000000000	
19.56325700000000	1.21895100000000	695.40561400000001	45.46924700000000	0.27393300000000	0.00000000000000	0.11535300000000	0.00000000000000	0.00000000000000	0.00000000000000	0.00000000000000	0.00000000000000	0.00000000000000	0.00000000000000	24.36100400000000	0.00000000000000	0.00000000000000	0.00000000000000	0.00000000000000	
